<svg height="512pt" viewBox="-86 0 511 512" width="512pt" xmlns="http://www.w3.org/2000/svg"><path d="m340.425781 388.210938v74.84375c0 5.941406-3.414062 11.339843-8.753906 13.9375-45.246094 22.019531-100.960937 35.007812-161.210937 35.007812s-115.964844-12.988281-161.207032-35.007812c-5.34375-2.597657-8.753906-7.996094-8.753906-13.9375v-74.84375c0-9.859376 5.828125-18.789063 14.855469-22.773438l75.699219-33.367188c8.855468-3.898437 14.578124-12.683593 14.578124-22.363281v-78.964843h129.65625v78.964843c0 9.679688 5.722657 18.464844 14.582032 22.363281l75.699218 33.367188c9.023438 3.984375 14.855469 12.914062 14.855469 22.773438zm0 0" fill="#c98c4f"/><path d="m325.570312 365.441406-75.699218-33.371094c-8.859375-3.894531-14.582032-12.683593-14.582032-22.363281v-78.964843h-129.65625v16.484374h102.101563v78.964844c0 9.679688 5.722656 18.464844 14.578125 22.363282l75.703125 33.367187c9.023437 3.984375 14.851563 12.914063 14.851563 22.769531v74.847656c0 2.25-.488282 4.425782-1.390626 6.398438 6.9375-2.785156 13.675782-5.769531 20.195313-8.941406 5.339844-2.601563 8.753906-8 8.753906-13.941406v-74.84375c0-9.859376-5.832031-18.789063-14.855469-22.769532zm0 0" fill="#af6a3a"/><path d="m198.726562 329.371094c10.875 0 23.992188-6.101563 36.859376-15.867188-.195313-1.246094-.296876-2.511718-.296876-3.796875v-78.964843h-129.65625v54.273437c19.527344 24.976563 46.027344 44.355469 65.410157 44.355469zm0 0" fill="#af6a3a"/><g fill="#c98c4f"><path d="m283.488281 139.148438h-30.203125v62.4375h30.203125c13.226563 0 23.945313-10.722657 23.945313-23.949219v-14.542969c0-13.226562-10.71875-23.945312-23.945313-23.945312zm0 0"/><path d="m57.433594 139.148438h30.207031v62.4375h-30.207031c-13.222656 0-23.945313-10.722657-23.945313-23.949219v-14.542969c0-13.226562 10.722657-23.945312 23.945313-23.945312zm0 0"/><path d="m275.996094 178.402344c0 45.117187-57.144532 106.671875-91.691406 106.671875h-27.6875c-34.542969 0-91.691407-61.554688-91.691407-106.671875l.007813-93.714844c.007812-46.773438 37.925781-84.6875 84.703125-84.6875h41.652343c46.773438 0 84.695313 37.914062 84.699219 84.6875zm0 0"/></g><path d="m275.988281 84.6875c-.003906-46.773438-37.925781-84.6875-84.699219-84.6875h-25.925781c46.773438 0 84.695313 37.914062 84.699219 84.6875l.011719 93.714844c0 45.117187-57.148438 106.671875-91.695313 106.671875h25.925782c34.546874 0 91.695312-61.554688 91.695312-106.671875zm0 0" fill="#af6a3a"/><path d="m124.429688 169.699219c-4.140626 0-7.5-3.355469-7.5-7.5v-3.3125c0-4.140625 3.359374-7.5 7.5-7.5 4.144531 0 7.5 3.359375 7.5 7.5v3.3125c0 4.144531-3.355469 7.5-7.5 7.5zm0 0" fill="#233b5e"/><path d="m216.492188 169.699219c-4.140626 0-7.5-3.355469-7.5-7.5v-3.3125c0-4.140625 3.359374-7.5 7.5-7.5 4.144531 0 7.5 3.359375 7.5 7.5v3.3125c0 4.144531-3.355469 7.5-7.5 7.5zm0 0" fill="#233b5e"/><path d="m233.363281 144.289062c-1.109375 0-2.234375-.246093-3.296875-.769531-9.671875-4.746093-19.074218-4.746093-28.742187 0-3.71875 1.824219-8.214844.292969-10.039063-3.425781-1.824218-3.71875-.289062-8.214844 3.429688-10.039062 13.921875-6.832032 28.039062-6.832032 41.960937 0 3.71875 1.824218 5.253907 6.320312 3.425781 10.039062-1.304687 2.652344-3.96875 4.195312-6.738281 4.195312zm0 0" fill="#272d44"/><path d="m142.902344 144.289062c-1.113282 0-2.238282-.246093-3.300782-.769531-9.671874-4.746093-19.070312-4.746093-28.742187 0-3.714844 1.824219-8.210937.292969-10.035156-3.425781-1.828125-3.722656-.292969-8.214844 3.425781-10.039062 13.921875-6.832032 28.039062-6.832032 41.960938 0 3.71875 1.824218 5.253906 6.320312 3.429687 10.039062-1.304687 2.652344-3.96875 4.195312-6.738281 4.195312zm0 0" fill="#272d44"/><path d="m170.460938 303.230469c-37.996094 0-69.824219-19.410157-87.800782-49.113281-15.519531-25.648438-17.484375-48.722657-17.734375-76.441407-.046875-5.429687 7.246094-7.242187 9.726563-2.410156 6.136718 11.933594 12.039062 32.652344 32.1875 42.433594 29.234375 14.191406 25.648437 34.625 29.234375 39.644531 3.585937 5.019531 17.15625 12.933594 34.386719 12.933594 17.234374 0 30.804687-7.914063 34.390624-12.933594 3.582032-5.019531 0-25.453125 29.230469-39.644531 20.148438-9.78125 26.054688-30.5 32.1875-42.433594 2.484375-4.828125 9.777344-3.019531 9.726563 2.410156-.246094 27.71875-2.214844 50.792969-17.734375 76.441407-17.972657 29.703124-49.800781 49.113281-87.800781 49.113281zm0 0" fill="#464960"/><path d="m266.269531 175.265625c-3.679687 7.160156-7.28125 17.476563-13.917969 26.703125-1.488281 17.753906-5.269531 34.332031-14.890624 52.148438-15.1875 28.125-41.464844 47.007812-73 48.9375 1.984374.109374 3.980468.175781 6 .175781 38 0 69.828124-19.410157 87.800781-49.113281 15.519531-25.644532 17.488281-48.71875 17.734375-76.4375.050781-5.433594-7.242188-7.242188-9.726563-2.414063zm0 0" fill="#272d44"/><path d="m297.84375 353.21875-37.925781-16.71875-.230469 2.59375c-4.074219 46.242188-89.226562 84.796875-89.226562 84.796875s-85.148438-38.554687-89.226563-84.796875l-.226563-2.59375-37.925781 16.71875c14.703125 36.835938 20.035157 79.761719-3.691406 136.519531 38.941406 14.191407 83.59375 22.261719 131.070313 22.261719 47.476562 0 92.132812-8.070312 131.070312-22.261719-23.722656-56.757812-18.390625-99.6875-3.6875-136.519531zm0 0" fill="#f4d34c"/><path d="m259.6875 339.09375c-.679688 7.722656-3.632812 15.230469-8.0625 22.382812l38.136719 16.808594c2.109375-8.699218 4.871093-17.027344 8.082031-25.066406l-37.929688-16.71875zm0 0" fill="#d6a10d"/><path d="m171.785156 453.382812c8.035156-6.746093 50.738282-43.578124 73.589844-83.160156-25.296875 31.199219-74.914062 53.667969-74.914062 53.667969s-49.617188-22.46875-74.914063-53.667969c22.855469 39.582032 65.558594 76.414063 73.59375 83.160156.765625.640626 1.878906.640626 2.644531 0zm0 0" fill="#7f59a0"/><path d="m275.992188 122.800781-.003907-38.113281c-.003906-46.773438-37.925781-84.6875-84.699219-84.6875h-41.652343c-46.777344 0-84.695313 37.914062-84.703125 84.6875v38.488281c0-47.054687 24.964844-72.648437 42.621094-81.09375 23.875-11.414062 32.757812 12.519531 62.90625 12.519531 30.148437 0 39.042968-23.933593 62.914062-12.519531 17.679688 8.453125 42.414062 10.308594 42.617188 80.71875zm0 0" fill="#464960"/><path d="m165.363281 0c32.464844 0 60.660157 18.265625 74.878907 45.078125 16.585937 6.980469 35.570312 16.074219 35.75 77.722656l-.003907-38.113281c-.007812-46.796875-37.902343-84.6875-84.699219-84.6875zm0 0" fill="#272d44"/><path d="m170.460938 216.753906c-9.65625 0-19.027344-2.957031-27.101563-8.554687-3.40625-2.359375-4.25-7.035157-1.890625-10.4375 2.359375-3.40625 7.03125-4.25 10.4375-1.890625 5.550781 3.847656 11.96875 5.882812 18.554688 5.882812 6.589843 0 13.007812-2.035156 18.558593-5.882812 3.40625-2.359375 8.078125-1.511719 10.4375 1.890625 2.359375 3.402343 1.511719 8.078125-1.890625 10.4375-8.074218 5.597656-17.449218 8.554687-27.105468 8.554687zm0 0" fill="#874d26"/><path d="m277.453125 69.640625h-213.984375c-6.625 0-11.992188 5.371094-11.992188 11.992187v14.542969c0 6.625 5.371094 11.992188 11.992188 11.992188h213.984375c6.625 0 11.992187-5.371094 11.992187-11.992188v-14.539062c.003907-6.625-5.367187-11.996094-11.992187-11.996094zm0 0" fill="#e4edf4"/><path d="m277.453125 69.640625h-28.585937c6.625 0 11.996093 5.371094 11.996093 11.992187v14.542969c0 6.625-5.371093 11.992188-11.996093 11.992188h28.585937c6.625 0 11.996094-5.371094 11.996094-11.992188v-14.539062c0-6.625-5.371094-11.996094-11.996094-11.996094zm0 0" fill="#b3cada"/></svg>